{
    "asset" : {
        "generator" : "Khronos glTF Blender I/O v1.6.16",
        "version" : "2.0"
    },
    "scene" : 0,
    "scenes" : [
        {
            "name" : "Scene",
            "nodes" : [
                3
            ]
        }
    ],
    "nodes" : [
        {
            "name" : "Top",
            "rotation" : [
                0.7071068286895752,
                0,
                0,
                0.7071067094802856
            ],
            "translation" : [
                0,
                1.6083405017852783,
                -1.0516769886016846
            ]
        },
        {
            "children" : [
                0
            ],
            "name" : "Bottom",
            "rotation" : [
                -0.7071068286895752,
                0,
                0,
                0.7071067094802856
            ],
            "translation" : [
                -0.012617390602827072,
                1.1185904741287231,
                1.6153216361999512
            ]
        },
        {
            "mesh" : 0,
            "name" : "Cube",
            "skin" : 0
        },
        {
            "children" : [
                2,
                1
            ],
            "name" : "Armature.001",
            "rotation" : [
                0.7071068286895752,
                0,
                0,
                0.7071068286895752
            ],
            "translation" : [
                0,
                1.7138774394989014,
                -1.1067439317703247
            ]
        }
    ],
    "animations" : [
        {
            "channels" : [
                {
                    "sampler" : 0,
                    "target" : {
                        "node" : 1,
                        "path" : "translation"
                    }
                },
                {
                    "sampler" : 1,
                    "target" : {
                        "node" : 1,
                        "path" : "rotation"
                    }
                },
                {
                    "sampler" : 2,
                    "target" : {
                        "node" : 1,
                        "path" : "scale"
                    }
                },
                {
                    "sampler" : 3,
                    "target" : {
                        "node" : 0,
                        "path" : "translation"
                    }
                },
                {
                    "sampler" : 4,
                    "target" : {
                        "node" : 0,
                        "path" : "rotation"
                    }
                },
                {
                    "sampler" : 5,
                    "target" : {
                        "node" : 0,
                        "path" : "scale"
                    }
                }
            ],
            "name" : "Closeing",
            "samplers" : [
                {
                    "input" : 19,
                    "interpolation" : "LINEAR",
                    "output" : 20
                },
                {
                    "input" : 19,
                    "interpolation" : "LINEAR",
                    "output" : 21
                },
                {
                    "input" : 19,
                    "interpolation" : "LINEAR",
                    "output" : 22
                },
                {
                    "input" : 19,
                    "interpolation" : "LINEAR",
                    "output" : 23
                },
                {
                    "input" : 19,
                    "interpolation" : "LINEAR",
                    "output" : 24
                },
                {
                    "input" : 19,
                    "interpolation" : "LINEAR",
                    "output" : 25
                }
            ]
        },
        {
            "channels" : [
                {
                    "sampler" : 0,
                    "target" : {
                        "node" : 1,
                        "path" : "translation"
                    }
                },
                {
                    "sampler" : 1,
                    "target" : {
                        "node" : 1,
                        "path" : "rotation"
                    }
                },
                {
                    "sampler" : 2,
                    "target" : {
                        "node" : 1,
                        "path" : "scale"
                    }
                },
                {
                    "sampler" : 3,
                    "target" : {
                        "node" : 0,
                        "path" : "translation"
                    }
                },
                {
                    "sampler" : 4,
                    "target" : {
                        "node" : 0,
                        "path" : "rotation"
                    }
                },
                {
                    "sampler" : 5,
                    "target" : {
                        "node" : 0,
                        "path" : "scale"
                    }
                }
            ],
            "name" : "Idle",
            "samplers" : [
                {
                    "input" : 26,
                    "interpolation" : "LINEAR",
                    "output" : 27
                },
                {
                    "input" : 26,
                    "interpolation" : "LINEAR",
                    "output" : 28
                },
                {
                    "input" : 26,
                    "interpolation" : "LINEAR",
                    "output" : 29
                },
                {
                    "input" : 26,
                    "interpolation" : "LINEAR",
                    "output" : 30
                },
                {
                    "input" : 26,
                    "interpolation" : "LINEAR",
                    "output" : 31
                },
                {
                    "input" : 26,
                    "interpolation" : "LINEAR",
                    "output" : 32
                }
            ]
        },
        {
            "channels" : [
                {
                    "sampler" : 0,
                    "target" : {
                        "node" : 1,
                        "path" : "translation"
                    }
                },
                {
                    "sampler" : 1,
                    "target" : {
                        "node" : 1,
                        "path" : "rotation"
                    }
                },
                {
                    "sampler" : 2,
                    "target" : {
                        "node" : 1,
                        "path" : "scale"
                    }
                },
                {
                    "sampler" : 3,
                    "target" : {
                        "node" : 0,
                        "path" : "translation"
                    }
                },
                {
                    "sampler" : 4,
                    "target" : {
                        "node" : 0,
                        "path" : "rotation"
                    }
                },
                {
                    "sampler" : 5,
                    "target" : {
                        "node" : 0,
                        "path" : "scale"
                    }
                }
            ],
            "name" : "Opening",
            "samplers" : [
                {
                    "input" : 33,
                    "interpolation" : "LINEAR",
                    "output" : 34
                },
                {
                    "input" : 33,
                    "interpolation" : "LINEAR",
                    "output" : 35
                },
                {
                    "input" : 33,
                    "interpolation" : "LINEAR",
                    "output" : 36
                },
                {
                    "input" : 33,
                    "interpolation" : "LINEAR",
                    "output" : 37
                },
                {
                    "input" : 33,
                    "interpolation" : "LINEAR",
                    "output" : 38
                },
                {
                    "input" : 33,
                    "interpolation" : "LINEAR",
                    "output" : 39
                }
            ]
        }
    ],
    "materials" : [
        {
            "doubleSided" : true,
            "name" : "Wood",
            "pbrMetallicRoughness" : {
                "baseColorFactor" : [
                    0.09083791822195053,
                    0.04295455664396286,
                    0.026451637968420982,
                    1
                ],
                "metallicFactor" : 0,
                "roughnessFactor" : 0.5
            }
        },
        {
            "doubleSided" : true,
            "name" : "Metal",
            "pbrMetallicRoughness" : {
                "baseColorFactor" : [
                    0.11068852245807648,
                    0.11068852245807648,
                    0.11068852245807648,
                    1
                ],
                "metallicFactor" : 0,
                "roughnessFactor" : 0.5
            }
        },
        {
            "doubleSided" : true,
            "name" : "BottomColour",
            "pbrMetallicRoughness" : {
                "baseColorFactor" : [
                    0.0236506387591362,
                    0.0236506387591362,
                    0.0236506387591362,
                    1
                ],
                "metallicFactor" : 0,
                "roughnessFactor" : 0.5
            }
        }
    ],
    "meshes" : [
        {
            "name" : "Cube.001",
            "primitives" : [
                {
                    "attributes" : {
                        "POSITION" : 0,
                        "NORMAL" : 1,
                        "TEXCOORD_0" : 2,
                        "JOINTS_0" : 3,
                        "WEIGHTS_0" : 4
                    },
                    "indices" : 5,
                    "material" : 0
                },
                {
                    "attributes" : {
                        "POSITION" : 6,
                        "NORMAL" : 7,
                        "TEXCOORD_0" : 8,
                        "JOINTS_0" : 9,
                        "WEIGHTS_0" : 10
                    },
                    "indices" : 11,
                    "material" : 1
                },
                {
                    "attributes" : {
                        "POSITION" : 12,
                        "NORMAL" : 13,
                        "TEXCOORD_0" : 14,
                        "JOINTS_0" : 15,
                        "WEIGHTS_0" : 16
                    },
                    "indices" : 17,
                    "material" : 2
                }
            ]
        }
    ],
    "skins" : [
        {
            "inverseBindMatrices" : 18,
            "joints" : [
                1,
                0
            ],
            "name" : "Armature.001"
        }
    ],
    "accessors" : [
        {
            "bufferView" : 0,
            "componentType" : 5126,
            "count" : 160,
            "max" : [
                2.090531587600708,
                2.6095309257507324,
                1.1275250911712646
            ],
            "min" : [
                -2.1157662868499756,
                1.4446228742599487,
                -1.0960571765899658
            ],
            "type" : "VEC3"
        },
        {
            "bufferView" : 1,
            "componentType" : 5126,
            "count" : 160,
            "type" : "VEC3"
        },
        {
            "bufferView" : 2,
            "componentType" : 5126,
            "count" : 160,
            "type" : "VEC2"
        },
        {
            "bufferView" : 3,
            "componentType" : 5121,
            "count" : 160,
            "type" : "VEC4"
        },
        {
            "bufferView" : 4,
            "componentType" : 5126,
            "count" : 160,
            "type" : "VEC4"
        },
        {
            "bufferView" : 5,
            "componentType" : 5123,
            "count" : 390,
            "type" : "SCALAR"
        },
        {
            "bufferView" : 6,
            "componentType" : 5126,
            "count" : 132,
            "max" : [
                0.24726657569408417,
                1.964390754699707,
                1.1914067268371582
            ],
            "min" : [
                -0.27250126004219055,
                1.4446228742599487,
                1.1275250911712646
            ],
            "type" : "VEC3"
        },
        {
            "bufferView" : 7,
            "componentType" : 5126,
            "count" : 132,
            "type" : "VEC3"
        },
        {
            "bufferView" : 8,
            "componentType" : 5126,
            "count" : 132,
            "type" : "VEC2"
        },
        {
            "bufferView" : 9,
            "componentType" : 5121,
            "count" : 132,
            "type" : "VEC4"
        },
        {
            "bufferView" : 10,
            "componentType" : 5126,
            "count" : 132,
            "type" : "VEC4"
        },
        {
            "bufferView" : 11,
            "componentType" : 5123,
            "count" : 384,
            "type" : "SCALAR"
        },
        {
            "bufferView" : 12,
            "componentType" : 5126,
            "count" : 114,
            "max" : [
                2.090531587600708,
                1.639667272567749,
                1.1186106204986572
            ],
            "min" : [
                -2.1157662868499756,
                0.011020183563232422,
                -1.0949177742004395
            ],
            "type" : "VEC3"
        },
        {
            "bufferView" : 13,
            "componentType" : 5126,
            "count" : 114,
            "type" : "VEC3"
        },
        {
            "bufferView" : 14,
            "componentType" : 5126,
            "count" : 114,
            "type" : "VEC2"
        },
        {
            "bufferView" : 15,
            "componentType" : 5121,
            "count" : 114,
            "type" : "VEC4"
        },
        {
            "bufferView" : 16,
            "componentType" : 5126,
            "count" : 114,
            "type" : "VEC4"
        },
        {
            "bufferView" : 17,
            "componentType" : 5123,
            "count" : 192,
            "type" : "SCALAR"
        },
        {
            "bufferView" : 18,
            "componentType" : 5126,
            "count" : 2,
            "type" : "MAT4"
        },
        {
            "bufferView" : 19,
            "componentType" : 5126,
            "count" : 14,
            "max" : [
                0.5833333333333334
            ],
            "min" : [
                0.041666666666666664
            ],
            "type" : "SCALAR"
        },
        {
            "bufferView" : 20,
            "componentType" : 5126,
            "count" : 14,
            "type" : "VEC3"
        },
        {
            "bufferView" : 21,
            "componentType" : 5126,
            "count" : 14,
            "type" : "VEC4"
        },
        {
            "bufferView" : 22,
            "componentType" : 5126,
            "count" : 14,
            "type" : "VEC3"
        },
        {
            "bufferView" : 23,
            "componentType" : 5126,
            "count" : 14,
            "type" : "VEC3"
        },
        {
            "bufferView" : 24,
            "componentType" : 5126,
            "count" : 14,
            "type" : "VEC4"
        },
        {
            "bufferView" : 25,
            "componentType" : 5126,
            "count" : 14,
            "type" : "VEC3"
        },
        {
            "bufferView" : 26,
            "componentType" : 5126,
            "count" : 1,
            "max" : [
                0.2916666666666667
            ],
            "min" : [
                0.2916666666666667
            ],
            "type" : "SCALAR"
        },
        {
            "bufferView" : 27,
            "componentType" : 5126,
            "count" : 1,
            "type" : "VEC3"
        },
        {
            "bufferView" : 28,
            "componentType" : 5126,
            "count" : 1,
            "type" : "VEC4"
        },
        {
            "bufferView" : 29,
            "componentType" : 5126,
            "count" : 1,
            "type" : "VEC3"
        },
        {
            "bufferView" : 30,
            "componentType" : 5126,
            "count" : 1,
            "type" : "VEC3"
        },
        {
            "bufferView" : 31,
            "componentType" : 5126,
            "count" : 1,
            "type" : "VEC4"
        },
        {
            "bufferView" : 32,
            "componentType" : 5126,
            "count" : 1,
            "type" : "VEC3"
        },
        {
            "bufferView" : 33,
            "componentType" : 5126,
            "count" : 15,
            "max" : [
                0.5833333333333334
            ],
            "min" : [
                0
            ],
            "type" : "SCALAR"
        },
        {
            "bufferView" : 34,
            "componentType" : 5126,
            "count" : 15,
            "type" : "VEC3"
        },
        {
            "bufferView" : 35,
            "componentType" : 5126,
            "count" : 15,
            "type" : "VEC4"
        },
        {
            "bufferView" : 36,
            "componentType" : 5126,
            "count" : 15,
            "type" : "VEC3"
        },
        {
            "bufferView" : 37,
            "componentType" : 5126,
            "count" : 15,
            "type" : "VEC3"
        },
        {
            "bufferView" : 38,
            "componentType" : 5126,
            "count" : 15,
            "type" : "VEC4"
        },
        {
            "bufferView" : 39,
            "componentType" : 5126,
            "count" : 15,
            "type" : "VEC3"
        }
    ],
    "bufferViews" : [
        {
            "buffer" : 0,
            "byteLength" : 1920,
            "byteOffset" : 0
        },
        {
            "buffer" : 0,
            "byteLength" : 1920,
            "byteOffset" : 1920
        },
        {
            "buffer" : 0,
            "byteLength" : 1280,
            "byteOffset" : 3840
        },
        {
            "buffer" : 0,
            "byteLength" : 640,
            "byteOffset" : 5120
        },
        {
            "buffer" : 0,
            "byteLength" : 2560,
            "byteOffset" : 5760
        },
        {
            "buffer" : 0,
            "byteLength" : 780,
            "byteOffset" : 8320
        },
        {
            "buffer" : 0,
            "byteLength" : 1584,
            "byteOffset" : 9100
        },
        {
            "buffer" : 0,
            "byteLength" : 1584,
            "byteOffset" : 10684
        },
        {
            "buffer" : 0,
            "byteLength" : 1056,
            "byteOffset" : 12268
        },
        {
            "buffer" : 0,
            "byteLength" : 528,
            "byteOffset" : 13324
        },
        {
            "buffer" : 0,
            "byteLength" : 2112,
            "byteOffset" : 13852
        },
        {
            "buffer" : 0,
            "byteLength" : 768,
            "byteOffset" : 15964
        },
        {
            "buffer" : 0,
            "byteLength" : 1368,
            "byteOffset" : 16732
        },
        {
            "buffer" : 0,
            "byteLength" : 1368,
            "byteOffset" : 18100
        },
        {
            "buffer" : 0,
            "byteLength" : 912,
            "byteOffset" : 19468
        },
        {
            "buffer" : 0,
            "byteLength" : 456,
            "byteOffset" : 20380
        },
        {
            "buffer" : 0,
            "byteLength" : 1824,
            "byteOffset" : 20836
        },
        {
            "buffer" : 0,
            "byteLength" : 384,
            "byteOffset" : 22660
        },
        {
            "buffer" : 0,
            "byteLength" : 128,
            "byteOffset" : 23044
        },
        {
            "buffer" : 0,
            "byteLength" : 56,
            "byteOffset" : 23172
        },
        {
            "buffer" : 0,
            "byteLength" : 168,
            "byteOffset" : 23228
        },
        {
            "buffer" : 0,
            "byteLength" : 224,
            "byteOffset" : 23396
        },
        {
            "buffer" : 0,
            "byteLength" : 168,
            "byteOffset" : 23620
        },
        {
            "buffer" : 0,
            "byteLength" : 168,
            "byteOffset" : 23788
        },
        {
            "buffer" : 0,
            "byteLength" : 224,
            "byteOffset" : 23956
        },
        {
            "buffer" : 0,
            "byteLength" : 168,
            "byteOffset" : 24180
        },
        {
            "buffer" : 0,
            "byteLength" : 4,
            "byteOffset" : 24348
        },
        {
            "buffer" : 0,
            "byteLength" : 12,
            "byteOffset" : 24352
        },
        {
            "buffer" : 0,
            "byteLength" : 16,
            "byteOffset" : 24364
        },
        {
            "buffer" : 0,
            "byteLength" : 12,
            "byteOffset" : 24380
        },
        {
            "buffer" : 0,
            "byteLength" : 12,
            "byteOffset" : 24392
        },
        {
            "buffer" : 0,
            "byteLength" : 16,
            "byteOffset" : 24404
        },
        {
            "buffer" : 0,
            "byteLength" : 12,
            "byteOffset" : 24420
        },
        {
            "buffer" : 0,
            "byteLength" : 60,
            "byteOffset" : 24432
        },
        {
            "buffer" : 0,
            "byteLength" : 180,
            "byteOffset" : 24492
        },
        {
            "buffer" : 0,
            "byteLength" : 240,
            "byteOffset" : 24672
        },
        {
            "buffer" : 0,
            "byteLength" : 180,
            "byteOffset" : 24912
        },
        {
            "buffer" : 0,
            "byteLength" : 180,
            "byteOffset" : 25092
        },
        {
            "buffer" : 0,
            "byteLength" : 240,
            "byteOffset" : 25272
        },
        {
            "buffer" : 0,
            "byteLength" : 180,
            "byteOffset" : 25512
        }
    ],
    "buffers" : [
        {
            "byteLength" : 25692,
            "uri" : "data:application/octet-stream;base64,"
        }
    ]
}
